<?xml version="1.0" encoding="utf-8"?>
<!-- Generator: Adobe Illustrator 23.1.1, SVG Export Plug-In . SVG Version: 6.00 Build 0)  -->
<svg version="1.1" id="Capa_1" xmlns="http://www.w3.org/2000/svg" xmlns:xlink="http://www.w3.org/1999/xlink" x="0px" y="0px"
	 viewBox="0 0 80 80" style="enable-background:new 0 0 80 80;" xml:space="preserve">
<style type="text/css">
	.st0{fill:#3C5891;}
	.st1{fill:#FFFFFF;}
</style>
<g id="XMLID_1419_">
	<path id="XMLID_1421_" class="st0" d="M40,79.7L40,79.7C18.1,79.7,0.3,61.9,0.3,40l0,0C0.3,18.1,18.1,0.3,40,0.3l0,0
		c21.9,0,39.7,17.8,39.7,39.7l0,0C79.7,61.9,61.9,79.7,40,79.7z"/>
	<path id="XMLID_1420_" class="st1" d="M34,64h9.7V39.8h6.7l0.7-8.1h-7.5c0,0,0-3,0-4.6c0-1.9,0.4-2.7,2.2-2.7c1.5,0,5.2,0,5.2,0V16
		c0,0-5.5,0-6.7,0C37.2,16,34,19.2,34,25.2c0,5.3,0,6.5,0,6.5h-5v8.2h5V64z"/>
</g>
</svg>
