<?xml version="1.0" encoding="utf-8"?>
<!-- Generator: Adobe Illustrator 23.1.1, SVG Export Plug-In . SVG Version: 6.00 Build 0)  -->
<svg version="1.1" id="Capa_1" xmlns="http://www.w3.org/2000/svg" xmlns:xlink="http://www.w3.org/1999/xlink" x="0px" y="0px"
	 viewBox="0 0 80 80" style="enable-background:new 0 0 80 80;" xml:space="preserve">
<style type="text/css">
	.st0{fill:url(#XMLID_2_);}
	.st1{fill:#FFFFFF;}
</style>
<g id="XMLID_1346_">
	<radialGradient id="XMLID_2_" cx="-1.021" cy="78.9359" r="144.4585" gradientUnits="userSpaceOnUse">
		<stop  offset="0" style="stop-color:#EAE259"/>
		<stop  offset="0.2412" style="stop-color:#D37E48"/>
		<stop  offset="0.3343" style="stop-color:#CA6B5F"/>
		<stop  offset="0.438" style="stop-color:#C0526F"/>
		<stop  offset="0.4888" style="stop-color:#BB4573"/>
		<stop  offset="1" style="stop-color:#384893"/>
	</radialGradient>
	<path id="XMLID_1418_" class="st0" d="M40,78.7L40,78.7c-21.6,0-39.1-17.5-39.1-39.1l0,0C0.9,18,18.4,0.5,40,0.5h0
		c21.6,0,39.1,17.5,39.1,39.1l0,0C79.1,61.2,61.6,78.7,40,78.7z"/>
	<g id="XMLID_1347_">
		<path id="XMLID_1352_" class="st1" d="M40,22c5.7,0,6.4,0,8.7,0.1c2.1,0.1,3.2,0.4,4,0.7c1,0.4,1.7,0.9,2.5,1.6
			c0.7,0.7,1.2,1.5,1.6,2.5c0.3,0.8,0.6,1.9,0.7,4c0.1,2.3,0.1,2.9,0.1,8.7c0,5.7,0,6.4-0.1,8.7c-0.1,2.1-0.4,3.2-0.7,4
			c-0.4,1-0.9,1.7-1.6,2.5c-0.7,0.7-1.5,1.2-2.5,1.6c-0.8,0.3-1.9,0.6-4,0.7c-2.3,0.1-2.9,0.1-8.7,0.1c-5.7,0-6.4,0-8.7-0.1
			c-2.1-0.1-3.2-0.4-4-0.7c-1-0.4-1.7-0.9-2.5-1.6c-0.7-0.7-1.2-1.5-1.6-2.5c-0.3-0.8-0.6-1.9-0.7-4c-0.1-2.3-0.1-2.9-0.1-8.7
			c0-5.7,0-6.4,0.1-8.7c0.1-2.1,0.4-3.2,0.7-4c0.4-1,0.9-1.7,1.6-2.5c0.7-0.7,1.5-1.2,2.5-1.6c0.8-0.3,1.9-0.6,4-0.7
			C33.6,22.1,34.3,22,40,22 M40,18.2c-5.8,0-6.5,0-8.8,0.1c-2.3,0.1-3.8,0.5-5.2,1c-1.4,0.5-2.6,1.3-3.8,2.5
			c-1.2,1.2-1.9,2.4-2.5,3.8c-0.5,1.4-0.9,2.9-1,5.2c-0.1,2.3-0.1,3-0.1,8.8s0,6.5,0.1,8.8c0.1,2.3,0.5,3.8,1,5.2
			c0.5,1.4,1.3,2.6,2.5,3.8c1.2,1.2,2.4,1.9,3.8,2.5c1.4,0.5,2.9,0.9,5.2,1c2.3,0.1,3,0.1,8.8,0.1c5.8,0,6.5,0,8.8-0.1
			c2.3-0.1,3.8-0.5,5.2-1c1.4-0.5,2.6-1.3,3.8-2.5c1.2-1.2,1.9-2.4,2.5-3.8c0.5-1.4,0.9-2.9,1-5.2c0.1-2.3,0.1-3,0.1-8.8
			s0-6.5-0.1-8.8c-0.1-2.3-0.5-3.8-1-5.2c-0.5-1.4-1.3-2.6-2.5-3.8c-1.2-1.2-2.4-1.9-3.8-2.5c-1.4-0.5-2.9-0.9-5.2-1
			C46.5,18.2,45.8,18.2,40,18.2"/>
		<path id="XMLID_1349_" class="st1" d="M40,28.6c-6.1,0-11,4.9-11,11c0,6.1,4.9,11,11,11c6.1,0,11-4.9,11-11
			C51,33.5,46.1,28.6,40,28.6 M40,46.8c-3.9,0-7.1-3.2-7.1-7.1c0-3.9,3.2-7.1,7.1-7.1c3.9,0,7.1,3.2,7.1,7.1
			C47.1,43.6,43.9,46.8,40,46.8"/>
		<path id="XMLID_1348_" class="st1" d="M54,28.2c0,1.4-1.2,2.6-2.6,2.6c-1.4,0-2.6-1.2-2.6-2.6c0-1.4,1.2-2.6,2.6-2.6
			C52.9,25.6,54,26.8,54,28.2"/>
	</g>
</g>
</svg>
