<?xml version="1.0" encoding="utf-8"?>
<!-- Generator: Adobe Illustrator 23.1.1, SVG Export Plug-In . SVG Version: 6.00 Build 0)  -->
<svg version="1.1" id="Capa_1" xmlns="http://www.w3.org/2000/svg" xmlns:xlink="http://www.w3.org/1999/xlink" x="0px" y="0px"
	 viewBox="0 0 172.8 158.4" style="enable-background:new 0 0 172.8 158.4;" xml:space="preserve">
<style type="text/css">
	.st0{fill:#FFFDFD;}
</style>
<g>
	<g>
		<g>
			<g>
				<path class="st0" d="M72.5,49.9c3.2,0,5.9,1.1,8,3.2c2.1,2.1,3.2,4.7,3.2,7.9c0,3.1-1.1,5.7-3.2,7.8S75.7,72,72.7,72
					c-3.1,0-5.8-1.1-7.9-3.2s-3.2-4.7-3.2-7.8c0-2,0.5-3.9,1.5-5.6c1-1.7,2.3-3.1,4-4.1C68.7,50.4,70.6,49.9,72.5,49.9z M72.6,51.9
					c-1.6,0-3,0.4-4.4,1.2s-2.5,1.9-3.3,3.3c-0.8,1.4-1.2,2.9-1.2,4.6c0,2.5,0.9,4.6,2.6,6.3c1.7,1.7,3.8,2.6,6.3,2.6
					c1.6,0,3.1-0.4,4.5-1.2c1.4-0.8,2.5-1.9,3.2-3.2c0.8-1.4,1.2-2.9,1.2-4.6c0-1.7-0.4-3.2-1.2-4.5c-0.8-1.3-1.9-2.4-3.3-3.2
					C75.7,52.3,74.2,51.9,72.6,51.9z"/>
			</g>
			<g>
				<path class="st0" d="M94,49.9v2c-0.7-0.3-1.4-0.5-1.9-0.5c-0.4,0-0.7,0.1-1,0.2c-0.3,0.2-0.4,0.3-0.5,0.5s-0.1,0.7-0.1,1.6v2.1
					h3.2v1.7h-3.3v13.8h-2V57.6h-2v-1.7h2v-2.4c0-1.1,0.1-1.9,0.3-2.4c0.2-0.5,0.6-0.9,1-1.1c0.5-0.3,1.1-0.4,1.8-0.4
					C92.4,49.5,93.1,49.6,94,49.9z"/>
			</g>
			<g>
				<path class="st0" d="M97.5,49.5c0.5,0,0.8,0.2,1.2,0.5c0.3,0.3,0.5,0.7,0.5,1.2c0,0.4-0.2,0.8-0.5,1.2c-0.3,0.3-0.7,0.5-1.2,0.5
					c-0.4,0-0.8-0.2-1.2-0.5c-0.3-0.3-0.5-0.7-0.5-1.2s0.2-0.9,0.5-1.2C96.7,49.6,97.1,49.5,97.5,49.5z M96.5,55.9h2v15.6h-2V55.9z"
					/>
			</g>
			<g>
				<path class="st0" d="M117.8,59.1l-1.6,1c-1.4-1.8-3.2-2.7-5.6-2.7c-1.9,0-3.5,0.6-4.7,1.8c-1.3,1.2-1.9,2.7-1.9,4.4
					c0,1.1,0.3,2.2,0.9,3.2s1.4,1.8,2.4,2.3s2.1,0.8,3.4,0.8c2.3,0,4.2-0.9,5.6-2.7l1.6,1c-0.7,1.1-1.7,2-3,2.6s-2.7,0.9-4.3,0.9
					c-2.5,0-4.5-0.8-6.1-2.3c-1.6-1.6-2.4-3.5-2.4-5.7c0-1.5,0.4-2.9,1.1-4.2c0.8-1.3,1.8-2.3,3.1-3c1.3-0.7,2.8-1.1,4.4-1.1
					c1,0,2,0.2,3,0.5s1.8,0.7,2.4,1.2C116.8,57.7,117.3,58.3,117.8,59.1z"/>
			</g>
			<g>
				<path class="st0" d="M122.3,49.5c0.5,0,0.8,0.2,1.2,0.5c0.3,0.3,0.5,0.7,0.5,1.2c0,0.4-0.2,0.8-0.5,1.2
					c-0.3,0.3-0.7,0.5-1.2,0.5c-0.4,0-0.8-0.2-1.2-0.5c-0.3-0.3-0.5-0.7-0.5-1.2s0.2-0.9,0.5-1.2C121.5,49.6,121.9,49.5,122.3,49.5z
					 M121.3,55.9h2v15.6h-2V55.9z"/>
			</g>
			<g>
				<path class="st0" d="M127.5,55.9h2v2.8c0.8-1.1,1.7-1.9,2.7-2.4s2-0.8,3.2-0.8s2.2,0.3,3.1,0.9c0.9,0.6,1.6,1.4,2,2.4
					s0.6,2.6,0.6,4.7v8h-2V64c0-1.8-0.1-3-0.2-3.6c-0.2-1-0.7-1.8-1.3-2.3c-0.7-0.5-1.5-0.8-2.6-0.8c-1.2,0-2.3,0.4-3.3,1.2
					s-1.6,1.8-1.9,3c-0.2,0.8-0.3,2.2-0.3,4.2v5.7h-2V55.9z"/>
			</g>
			<g>
				<path class="st0" d="M160.9,55.9v15.6h-2v-2.7c-0.8,1-1.8,1.8-2.8,2.3s-2.2,0.8-3.4,0.8c-2.2,0-4.1-0.8-5.6-2.4
					c-1.6-1.6-2.3-3.5-2.3-5.8c0-2.2,0.8-4.2,2.4-5.7c1.6-1.6,3.5-2.4,5.7-2.4c1.3,0,2.4,0.3,3.5,0.8c1,0.5,1.9,1.4,2.7,2.4v-2.9
					C159.1,55.9,160.9,55.9,160.9,55.9z M152.9,57.4c-1.1,0-2.1,0.3-3.1,0.8c-0.9,0.6-1.7,1.3-2.3,2.3s-0.8,2-0.8,3.1
					s0.3,2.1,0.8,3.1c0.6,1,1.3,1.8,2.3,2.3c0.9,0.6,2,0.8,3,0.8c1.1,0,2.1-0.3,3.1-0.8c1-0.6,1.7-1.3,2.3-2.2
					c0.5-0.9,0.8-2,0.8-3.2c0-1.8-0.6-3.3-1.8-4.5C156,58,154.6,57.4,152.9,57.4z"/>
			</g>
		</g>
		<g>
			<g>
				<path class="st0" d="M61.2,74.4H65L69.8,88l4.9-13.6h3.7l-6.9,19.1H68L61.2,74.4z"/>
			</g>
			<g>
				<path class="st0" d="M81,74.4h3.6v19.1H81V74.4z"/>
			</g>
			<g>
				<path class="st0" d="M89,74.4h3.8c2.1,0,3.6,0.2,4.5,0.6s1.6,1,2.2,1.9c0.5,0.9,0.8,1.9,0.8,3.1c0,1.3-0.3,2.3-0.9,3.1
					c-0.6,0.8-1.5,1.5-2.7,1.9l4.5,8.5h-4l-4.3-8.1h-0.3v8.1H89V74.4z M92.6,81.8h1.1c1.2,0,2-0.1,2.4-0.5c0.4-0.3,0.7-0.8,0.7-1.5
					c0-0.4-0.1-0.8-0.3-1.1c-0.2-0.3-0.5-0.5-0.9-0.7c-0.4-0.1-1-0.2-2-0.2h-1C92.6,77.8,92.6,81.8,92.6,81.8z"/>
			</g>
			<g>
				<path class="st0" d="M102.2,74.4h10.5V78h-3.5v15.5h-3.7V77.9h-3.4L102.2,74.4L102.2,74.4z"/>
			</g>
			<g>
				<path class="st0" d="M115.1,74.4h3.6v12.3c0,1.1,0.1,1.8,0.3,2.3c0.2,0.4,0.5,0.8,0.9,1.1c0.4,0.3,0.9,0.4,1.5,0.4
					s1.2-0.2,1.7-0.4c0.5-0.3,0.8-0.7,1-1.1c0.2-0.5,0.3-1.3,0.3-2.6v-12h3.6v11.4c0,1.9-0.1,3.2-0.3,4c-0.2,0.7-0.6,1.5-1.2,2.2
					s-1.3,1.2-2.1,1.5c-0.8,0.3-1.7,0.5-2.8,0.5c-1.4,0-2.6-0.3-3.6-1c-1-0.6-1.8-1.4-2.2-2.4c-0.4-1-0.7-2.6-0.7-4.8
					C115.1,85.8,115.1,74.4,115.1,74.4z"/>
			</g>
			<g>
				<path class="st0" d="M138.1,74.4h3.7l7.3,19.1h-3.8l-1.5-3.9H136l-1.6,3.9h-3.8L138.1,74.4z M140,79.4l-2.6,6.6h5.1L140,79.4z"
					/>
			</g>
			<g>
				<path class="st0" d="M151.9,74.4h3.6V90h5.3v3.5h-8.9L151.9,74.4L151.9,74.4z"/>
			</g>
		</g>
	</g>
	<g>
		<g>
			<path class="st0" d="M128.6,100.3l-1.7,1.6c-1.2-1.2-2.5-1.8-3.9-1.8c-1.2,0-2.3,0.4-3.1,1.3c-0.8,0.8-1.3,1.9-1.3,3.1
				c0,0.9,0.2,1.6,0.6,2.3c0.4,0.7,0.9,1.2,1.6,1.6s1.4,0.6,2.3,0.6c0.7,0,1.4-0.1,1.9-0.4c0.6-0.3,1.2-0.7,1.9-1.4l1.7,1.7
				c-0.9,0.9-1.8,1.6-2.7,1.9c-0.8,0.4-1.8,0.5-2.9,0.5c-2,0-3.6-0.6-4.9-1.9s-1.9-2.9-1.9-4.8c0-1.3,0.3-2.4,0.9-3.4
				s1.4-1.8,2.5-2.4s2.2-0.9,3.5-0.9c1.1,0,2.1,0.2,3.1,0.7C127.1,98.9,127.9,99.5,128.6,100.3z"/>
		</g>
		<g>
			<path class="st0" d="M142.5,100.3l-1.7,1.6c-1.2-1.2-2.5-1.8-3.9-1.8c-1.2,0-2.3,0.4-3.1,1.3c-0.8,0.8-1.3,1.9-1.3,3.1
				c0,0.9,0.2,1.6,0.6,2.3c0.4,0.7,0.9,1.2,1.6,1.6c0.7,0.4,1.4,0.6,2.3,0.6c0.7,0,1.4-0.1,1.9-0.4c0.6-0.3,1.2-0.7,1.9-1.4l1.7,1.7
				c-0.9,0.9-1.8,1.6-2.7,1.9c-0.8,0.4-1.8,0.5-2.9,0.5c-2,0-3.6-0.6-4.9-1.9c-1.3-1.3-1.9-2.9-1.9-4.8c0-1.3,0.3-2.4,0.9-3.4
				c0.6-1,1.4-1.8,2.5-2.4s2.2-0.9,3.5-0.9c1.1,0,2.1,0.2,3,0.7C141,98.9,141.8,99.5,142.5,100.3z"/>
		</g>
		<g>
			<path class="st0" d="M151.4,99.8l-1.8,1.6c-0.6-0.9-1.3-1.3-1.9-1.3c-0.3,0-0.6,0.1-0.8,0.3c-0.2,0.2-0.3,0.4-0.3,0.6
				s0.1,0.4,0.2,0.6c0.2,0.3,0.8,0.8,1.8,1.6c0.9,0.8,1.5,1.3,1.7,1.5c0.5,0.5,0.8,1,1,1.4c0.2,0.5,0.3,1,0.3,1.5
				c0,1-0.4,1.9-1.1,2.6c-0.7,0.7-1.7,1-2.8,1c-0.9,0-1.7-0.2-2.4-0.7c-0.7-0.4-1.3-1.1-1.7-2.1l2-1.2c0.6,1.1,1.3,1.7,2.1,1.7
				c0.4,0,0.8-0.1,1.1-0.4c0.3-0.2,0.4-0.5,0.4-0.8s-0.1-0.6-0.3-0.9s-0.7-0.7-1.4-1.3c-1.4-1.1-2.3-2-2.7-2.6s-0.6-1.2-0.6-1.9
				c0-0.9,0.3-1.6,1-2.3c0.7-0.6,1.5-1,2.5-1c0.6,0,1.3,0.2,1.8,0.4C150.1,98.5,150.7,99,151.4,99.8z"/>
		</g>
		<g>
			<path class="st0" d="M160.6,99.8l-1.8,1.6c-0.6-0.9-1.3-1.3-1.9-1.3c-0.3,0-0.6,0.1-0.8,0.3c-0.2,0.2-0.3,0.4-0.3,0.6
				s0.1,0.4,0.2,0.6c0.2,0.3,0.8,0.8,1.8,1.6c0.9,0.8,1.5,1.3,1.7,1.5c0.5,0.5,0.8,1,1.1,1.4c0.2,0.5,0.3,1,0.3,1.5
				c0,1-0.4,1.9-1.1,2.6c-0.7,0.7-1.7,1-2.8,1c-0.9,0-1.7-0.2-2.4-0.7c-0.7-0.4-1.3-1.1-1.7-2.1l2-1.2c0.6,1.1,1.3,1.7,2.1,1.7
				c0.4,0,0.8-0.1,1.1-0.4c0.3-0.2,0.4-0.5,0.4-0.8s-0.1-0.6-0.3-0.9s-0.7-0.7-1.4-1.3c-1.4-1.1-2.3-2-2.7-2.6s-0.6-1.2-0.6-1.9
				c0-0.9,0.3-1.6,1-2.3c0.7-0.6,1.5-1,2.5-1c0.6,0,1.2,0.2,1.8,0.4C159.3,98.5,160,99,160.6,99.8z"/>
		</g>
	</g>
	<g>
		<g>
			<path class="st0" d="M127.7,37.1c-6-7.7-14-13.7-23.1-17.3c-7.9-3.1-16.2-4.4-24.6-3.7l-0.1-1.6c8.7-0.7,17.2,0.6,25.3,3.8
				c9.4,3.7,17.6,9.9,23.8,17.8L127.7,37.1z"/>
		</g>
		<g>
			<g>
				<rect x="13.6" y="83.6" class="st0" width="12.4" height="1.6"/>
			</g>
			<g>
				<path class="st0" d="M26.8,83.8h-1.6c0-12.4,3.8-24,11-33.6c4.3-5.7,7.4-7.8,7.5-7.9l0.9,1.3c0,0-3,2-7.1,7.5
					C30.5,60.5,26.8,71.8,26.8,83.8z"/>
			</g>
			<g>
				<path class="st0" d="M44.4,141.4c-3.1-2-6-4.3-8.7-6.8c-6.4-5.9-11.6-13-15.3-20.8c-4.3-9.1-6.5-18.8-6.5-29h1.6
					c0,9.9,2.1,19.4,6.3,28.3c3.6,7.7,8.7,14.6,15,20.4c2.6,2.4,5.5,4.7,8.5,6.7L44.4,141.4z"/>
			</g>
			<g>
				
					<rect x="42.9" y="135.5" transform="matrix(0.6923 -0.7216 0.7216 0.6923 -83.2574 77.4049)" class="st0" width="12.4" height="1.6"/>
			</g>
			<g>
				<circle class="st0" cx="26" cy="84.4" r="2.7"/>
			</g>
			<g>
				<circle class="st0" cx="44.2" cy="43.1" r="7.4"/>
			</g>
			<g>
				<circle class="st0" cx="14.7" cy="84.8" r="7.5"/>
			</g>
			<g>
				<circle class="st0" cx="44.9" cy="140.8" r="7.7"/>
			</g>
			<g>
				<path class="st0" d="M81.8,140.4c-10.1,0-20-2.7-28.6-7.8l0.8-1.4c8.4,4.9,18,7.6,27.8,7.6c8.5,0,16.6-1.9,24.2-5.6l0.7,1.4
					C98.9,138.4,90.5,140.4,81.8,140.4z"/>
			</g>
			<g>
				<ellipse class="st0" cx="53.5" cy="131.8" rx="2.7" ry="2.7"/>
			</g>
			<g>
				<circle class="st0" cx="106.4" cy="134" r="7.8"/>
			</g>
		</g>
		<g>
			<g>
				<path class="st0" d="M72.3,105.9C62.2,102.5,55.4,93,55.4,82.4H57c0,10,6.4,18.8,15.8,22L72.3,105.9z"/>
			</g>
			<g>
				
					<rect x="57.4" y="113" transform="matrix(0.5692 -0.8222 0.8222 0.5692 -64.6866 104.1423)" class="st0" width="19.3" height="1.6"/>
			</g>
			<g>
				<path class="st0" d="M61.2,122.5c-8-3.8-14.7-10-19.2-17.7l1.4-0.8c4.3,7.5,10.7,13.4,18.5,17.1L61.2,122.5z"/>
			</g>
			<g>
				<path class="st0" d="M27.5,42.3l-1.3-1C31,35,36.9,29.6,43.6,25.2c10.9-7,23.6-10.7,36.6-10.7v1.6c-12.7,0-25.1,3.6-35.8,10.5
					C37.9,30.8,32.2,36.1,27.5,42.3z"/>
			</g>
			<g>
				<circle class="st0" cx="61.5" cy="121.5" r="2.7"/>
			</g>
			<g>
				<circle class="st0" cx="56.1" cy="82.4" r="2.1"/>
			</g>
			<g>
				<circle class="st0" cx="80.2" cy="15.3" r="9"/>
			</g>
			<g>
				<circle class="st0" cx="26.8" cy="41.8" r="6.6"/>
			</g>
			<g>
				<circle class="st0" cx="80.2" cy="39.3" r="5"/>
			</g>
			<g>
				<ellipse class="st0" cx="42.7" cy="104.4" rx="8.6" ry="8.6"/>
			</g>
			<g>
				<path class="st0" d="M37.7,82.7h-1.6c0-6,1.2-11.7,3.5-17.2c3.9-9.1,10.8-16.8,19.5-21.6c6.4-3.5,13.7-5.4,21.1-5.4v1.6
					c-7.1,0-14.2,1.8-20.4,5.2c-8.4,4.6-15.1,12-18.8,20.8C38.8,71.4,37.7,76.9,37.7,82.7z"/>
			</g>
			<g>
				<rect x="42.2" y="81.6" class="st0" width="13.9" height="1.6"/>
			</g>
			<g>
				<circle class="st0" cx="73.2" cy="105.4" r="4.9"/>
			</g>
			<g>
				<circle class="st0" cx="36.9" cy="82.7" r="5.4"/>
			</g>
		</g>
		<g>
			<circle class="st0" cx="128.1" cy="36.7" r="5"/>
		</g>
	</g>
</g>
</svg>
