<?xml version="1.0" encoding="utf-8"?>
<!-- Generator: Adobe Illustrator 23.1.1, SVG Export Plug-In . SVG Version: 6.00 Build 0)  -->
<svg version="1.1" id="Capa_1" xmlns="http://www.w3.org/2000/svg" xmlns:xlink="http://www.w3.org/1999/xlink" x="0px" y="0px"
	 viewBox="0 0 298.2 124.6" style="enable-background:new 0 0 298.2 124.6;" xml:space="preserve">
<style type="text/css">
	.st0{fill:#FFFFFF;}
</style>
<path class="st0" d="M47.2,4.8V10L7.9,49.3c-0.2,0.2-0.3,0.5-0.3,0.8v42.2c0,0.3,0.1,0.6,0.3,0.8l10.4,12c-1.6,0.7-2.8,2.4-2.8,4.3
	c0,2.6,2.1,4.7,4.7,4.7c2.6,0,4.7-2.1,4.7-4.7c0-2.2-1.6-4.1-3.7-4.5l-11.2-13V50.6L42.5,18c-1,0-1.9,0-2.9,0c1,0,1.9,0,2.9,0
	l6.7-6.7c0.2-0.2,0.3-0.5,0.3-0.8V4.8C48.8,4.8,48,4.8,47.2,4.8z M20.1,107.1c1.3,0,2.3,1,2.3,2.3c0,1.3-1,2.3-2.3,2.3
	c-1.3,0-2.3-1-2.3-2.3C17.8,108.1,18.8,107.1,20.1,107.1z"/>
<path class="st0" d="M53.8,4.8V10l-8,8c1.1,0,2.2,0,3.3,0l6.7-6.7c0.2-0.2,0.3-0.5,0.3-0.8V4.8C55.4,4.8,54.6,4.8,53.8,4.8z"/>
<path class="st0" d="M16.5,91.9V50.6L49.1,18c-1.1,0-2.2,0-3.3,0L14.5,49.3c-0.2,0.2-0.3,0.5-0.3,0.8v42.2c0,0.3,0.1,0.6,0.3,0.8
	l11.7,13.6c0.2,0.3,0.6,0.4,0.9,0.4c0.3,0,0.5-0.1,0.8-0.3c0.5-0.4,0.5-1.2,0.1-1.7L16.5,91.9z"/>
<path class="st0" d="M27.7,49.3c-0.5,0.5-0.5,1.2,0,1.7c0.2,0.2,0.5,0.3,0.8,0.3c0.3,0,0.6-0.1,0.8-0.3L62.3,18c-1.1,0-2.2,0-3.3,0
	L27.7,49.3z"/>
<path class="st0" d="M100.7,5.8c-2.2,0-4,1.5-4.5,3.5h-28c-0.3,0-0.6,0.1-0.8,0.3L59,18c1.1,0,2.2,0,3.3,0l6.4-6.4h27.5
	c0.5,2,2.3,3.5,4.5,3.5c2.6,0,4.7-2.1,4.7-4.7C105.3,7.9,103.2,5.8,100.7,5.8z M100.7,12.8c-1.3,0-2.3-1-2.3-2.3
	c0-1.3,1-2.3,2.3-2.3c1.3,0,2.3,1,2.3,2.3C103,11.7,101.9,12.8,100.7,12.8z"/>
<path class="st0" d="M60.4,4.8V10l-8,8c1.1,0,2.2,0,3.3,0l6.7-6.7c0.2-0.2,0.3-0.5,0.3-0.8V4.8C62,4.8,61.2,4.8,60.4,4.8z"/>
<path class="st0" d="M36.3,104.7c-0.6,0-1.2,0.1-1.7,0.3L23.1,91.9V50.6L55.7,18c-1.1,0-2.2,0-3.3,0L21.1,49.3
	c-0.2,0.2-0.3,0.5-0.3,0.8v42.2c0,0.3,0.1,0.6,0.3,0.8l11.6,13.4c-0.6,0.8-1,1.8-1,2.9c0,2.6,2.1,4.7,4.7,4.7s4.7-2.1,4.7-4.7
	C40.9,106.8,38.8,104.7,36.3,104.7z M36.3,111.7c-1.3,0-2.3-1-2.3-2.3c0-1.3,1-2.3,2.3-2.3c1.3,0,2.3,1,2.3,2.3
	C38.6,110.7,37.5,111.7,36.3,111.7z"/>
<g>
	<g>
		<path class="st0" d="M231.6,82.6l-1.7,1.6c-1.2-1.2-2.5-1.8-3.9-1.8c-1.2,0-2.3,0.4-3.1,1.3c-0.8,0.8-1.3,1.9-1.3,3.1
			c0,0.9,0.2,1.6,0.6,2.3c0.4,0.7,0.9,1.2,1.6,1.6s1.4,0.6,2.3,0.6c0.7,0,1.4-0.1,1.9-0.4c0.6-0.3,1.2-0.7,1.9-1.4l1.7,1.7
			c-0.9,0.9-1.8,1.6-2.7,1.9c-0.8,0.4-1.8,0.5-2.9,0.5c-2,0-3.6-0.6-4.9-1.9s-1.9-2.9-1.9-4.8c0-1.3,0.3-2.4,0.9-3.4
			c0.6-1,1.4-1.8,2.5-2.4c1.1-0.6,2.2-0.9,3.5-0.9c1.1,0,2.1,0.2,3.1,0.7C230.1,81.2,230.9,81.8,231.6,82.6z"/>
	</g>
	<g>
		<path class="st0" d="M245.5,82.6l-1.7,1.6c-1.2-1.2-2.5-1.8-3.9-1.8c-1.2,0-2.3,0.4-3.1,1.3c-0.8,0.8-1.3,1.9-1.3,3.1
			c0,0.9,0.2,1.6,0.6,2.3c0.4,0.7,0.9,1.2,1.6,1.6c0.7,0.4,1.4,0.6,2.3,0.6c0.7,0,1.4-0.1,1.9-0.4c0.6-0.3,1.2-0.7,1.9-1.4l1.7,1.7
			c-0.9,0.9-1.8,1.6-2.7,1.9c-0.8,0.4-1.8,0.5-2.9,0.5c-2,0-3.6-0.6-4.9-1.9c-1.3-1.3-1.9-2.9-1.9-4.8c0-1.3,0.3-2.4,0.9-3.4
			c0.6-1,1.4-1.8,2.5-2.4s2.2-0.9,3.5-0.9c1.1,0,2.1,0.2,3,0.7C244,81.2,244.8,81.8,245.5,82.6z"/>
	</g>
	<g>
		<path class="st0" d="M254.4,82.1l-1.8,1.6c-0.6-0.9-1.3-1.3-1.9-1.3c-0.3,0-0.6,0.1-0.8,0.3c-0.2,0.2-0.3,0.4-0.3,0.6
			s0.1,0.4,0.2,0.6c0.2,0.3,0.8,0.8,1.8,1.6c0.9,0.8,1.5,1.3,1.7,1.5c0.5,0.5,0.8,1,1,1.4c0.2,0.5,0.3,1,0.3,1.5
			c0,1-0.4,1.9-1.1,2.6c-0.7,0.7-1.7,1-2.8,1c-0.9,0-1.7-0.2-2.4-0.7c-0.7-0.4-1.3-1.1-1.7-2.1l2-1.2c0.6,1.1,1.3,1.7,2.1,1.7
			c0.4,0,0.8-0.1,1.1-0.4c0.3-0.2,0.4-0.5,0.4-0.8s-0.1-0.6-0.3-0.9s-0.7-0.7-1.4-1.3c-1.4-1.1-2.3-2-2.7-2.6s-0.6-1.2-0.6-1.9
			c0-0.9,0.3-1.6,1-2.3c0.7-0.6,1.5-1,2.5-1c0.6,0,1.3,0.2,1.8,0.4C253.1,80.8,253.7,81.3,254.4,82.1z"/>
	</g>
	<g>
		<path class="st0" d="M263.6,82.1l-1.8,1.6c-0.6-0.9-1.3-1.3-1.9-1.3c-0.3,0-0.6,0.1-0.8,0.3c-0.2,0.2-0.3,0.4-0.3,0.6
			s0.1,0.4,0.2,0.6c0.2,0.3,0.8,0.8,1.8,1.6c0.9,0.8,1.5,1.3,1.7,1.5c0.5,0.5,0.8,1,1.1,1.4c0.2,0.5,0.3,1,0.3,1.5
			c0,1-0.4,1.9-1.1,2.6c-0.7,0.7-1.7,1-2.8,1c-0.9,0-1.7-0.2-2.4-0.7c-0.7-0.4-1.3-1.1-1.7-2.1l2-1.2c0.6,1.1,1.3,1.7,2.1,1.7
			c0.4,0,0.8-0.1,1.1-0.4c0.3-0.2,0.4-0.5,0.4-0.8s-0.1-0.6-0.3-0.9c-0.2-0.3-0.7-0.7-1.4-1.3c-1.4-1.1-2.3-2-2.7-2.6
			s-0.6-1.2-0.6-1.9c0-0.9,0.3-1.6,1-2.3c0.7-0.6,1.5-1,2.5-1c0.6,0,1.2,0.2,1.8,0.4C262.3,80.8,263,81.3,263.6,82.1z"/>
	</g>
</g>
<g>
	<g>
		<path class="st0" d="M27.2,73.5l1.6-1.9c1.6,1.6,3.7,2.7,6,2.7c2.8,0,4.5-1.4,4.5-3.5c0-2.2-1.6-2.9-3.6-3.8l-3.1-1.4
			c-2-0.9-4.4-2.4-4.4-5.6c0-3.3,2.9-5.7,6.8-5.7c2.6,0,4.9,1.1,6.4,2.7L40,58.8c-1.3-1.3-2.9-2-4.9-2c-2.4,0-4,1.2-4,3.2
			c0,2.1,1.9,2.9,3.6,3.6l3.1,1.3c2.5,1.1,4.5,2.6,4.5,5.8c0,3.4-2.8,6.2-7.4,6.2C31.8,76.8,29.1,75.5,27.2,73.5z"/>
		<path class="st0" d="M45.1,68.4c0-5.2,3.5-8.4,7.2-8.4c4.1,0,6.4,2.9,6.4,7.5c0,0.6,0,1.1-0.1,1.5H47.7c0.2,3.4,2.3,5.6,5.3,5.6
			c1.5,0,2.8-0.5,4-1.3l1,1.8c-1.4,0.9-3.1,1.7-5.3,1.7C48.5,76.8,45.1,73.6,45.1,68.4z M56.3,67.1c0-3.2-1.4-5-4-5
			c-2.3,0-4.3,1.8-4.6,5H56.3z"/>
		<path class="st0" d="M62.7,60.3h2.2l0.2,2.9h0.1c1.1-2,2.8-3.3,4.6-3.3c0.7,0,1.2,0.1,1.7,0.3L71,62.6c-0.6-0.2-0.9-0.3-1.6-0.3
			c-1.4,0-3,1-4.1,3.7v10.3h-2.7V60.3z"/>
		<path class="st0" d="M71.9,60.3h2.8l3,9.1c0.5,1.6,1,3.2,1.5,4.7h0.1c0.5-1.5,1-3.2,1.5-4.7l3-9.1h2.7l-5.7,16h-3.2L71.9,60.3z"/>
		<path class="st0" d="M89.2,55.3c0-1.1,0.8-1.8,1.9-1.8c1.1,0,1.9,0.7,1.9,1.8c0,1-0.8,1.8-1.9,1.8C90,57,89.2,56.3,89.2,55.3z
			 M89.7,60.3h2.7v16h-2.7V60.3z"/>
		<path class="st0" d="M96.7,68.4c0-5.4,3.6-8.4,7.7-8.4c2.1,0,3.6,0.9,4.7,1.9l-1.4,1.8c-0.9-0.8-1.9-1.4-3.2-1.4
			c-2.9,0-5,2.5-5,6.2c0,3.7,2,6.1,5,6.1c1.5,0,2.8-0.7,3.8-1.6l1.2,1.8c-1.4,1.3-3.3,2-5.2,2C99.9,76.8,96.7,73.7,96.7,68.4z"/>
		<path class="st0" d="M112.5,55.3c0-1.1,0.8-1.8,1.9-1.8s1.9,0.7,1.9,1.8c0,1-0.8,1.8-1.9,1.8S112.5,56.3,112.5,55.3z M113,60.3
			h2.7v16H113V60.3z"/>
		<path class="st0" d="M120,68.4c0-5.4,3.5-8.4,7.4-8.4s7.4,3.1,7.4,8.4c0,5.3-3.5,8.4-7.4,8.4S120,73.7,120,68.4z M132,68.4
			c0-3.7-1.9-6.2-4.6-6.2c-2.8,0-4.6,2.5-4.6,6.2c0,3.7,1.9,6.1,4.6,6.1C130.2,74.5,132,72,132,68.4z"/>
		<path class="st0" d="M137.3,74.5l1.3-1.8c1.4,1.1,2.8,1.9,4.7,1.9c2.1,0,3.2-1.1,3.2-2.5c0-1.7-1.9-2.4-3.7-3
			c-2.2-0.8-4.8-1.9-4.8-4.6c0-2.6,2.1-4.6,5.5-4.6c2,0,3.7,0.8,5,1.8l-1.3,1.7c-1.1-0.8-2.2-1.4-3.7-1.4c-2,0-3,1.1-3,2.3
			c0,1.5,1.7,2.1,3.6,2.8c2.3,0.9,4.9,1.8,4.9,4.9c0,2.6-2.1,4.8-5.9,4.8C141,76.8,138.8,75.8,137.3,74.5z"/>
	</g>
</g>
<g>
	<g>
		<path class="st0" d="M156.5,59.4h4.4c4.8,0,7.9,2.4,7.9,7.8s-3.1,7.9-7.7,7.9h-4.6V59.4z M160.7,72.2c2.7,0,4.4-1.3,4.4-5
			s-1.8-4.9-4.4-4.9h-0.7v9.9H160.7z"/>
		<path class="st0" d="M171.8,59.4h3.5V75h-3.5V59.4z"/>
		<path class="st0" d="M178.3,67.3c0-5.2,3.4-8.2,7.6-8.2c2.3,0,3.9,1,4.9,2l-1.9,2.3c-0.8-0.7-1.6-1.2-3-1.2c-2.4,0-4.1,1.9-4.1,5
			c0,3.2,1.5,5.1,4.4,5.1c0.6,0,1.3-0.2,1.7-0.5v-2.7h-2.6v-2.9h5.7v7.2c-1.1,1.1-3,1.9-5.2,1.9C181.7,75.3,178.3,72.6,178.3,67.3z"
			/>
		<path class="st0" d="M194.4,59.4h3.5V75h-3.5V59.4z"/>
		<path class="st0" d="M204.8,62.4h-4.3v-3h12.1v3h-4.3V75h-3.5V62.4z"/>
		<path class="st0" d="M218,59.4h4.2l4.9,15.6h-3.7l-2-7.9c-0.4-1.6-0.9-3.4-1.3-5H220c-0.4,1.7-0.8,3.5-1.2,5l-2.1,7.9h-3.6
			L218,59.4z M216.3,68.6h7.5v2.7h-7.5V68.6z"/>
		<path class="st0" d="M228.9,59.4h3.5v12.7h6.2v3h-9.7V59.4z"/>
		<path class="st0" d="M241.4,59.4h9.8v3h-6.3v3.1h5.3v3h-5.3v3.6h6.5v3h-10V59.4z"/>
		<path class="st0" d="M253.6,73.1l2-2.4c1.1,1,2.6,1.6,3.8,1.6c1.5,0,2.2-0.6,2.2-1.5c0-1-0.9-1.3-2.3-1.9l-2-0.9
			c-1.6-0.7-3.2-2-3.2-4.3c0-2.6,2.3-4.7,5.6-4.7c1.8,0,3.7,0.7,5,2.1l-1.8,2.2c-1-0.8-2-1.2-3.2-1.2c-1.2,0-2,0.5-2,1.4
			c0,1,1,1.3,2.4,1.9l2,0.8c1.9,0.8,3.1,2,3.1,4.3c0,2.6-2.2,4.8-5.9,4.8C257.3,75.3,255.2,74.6,253.6,73.1z"/>
	</g>
</g>
<g>
	<g>
	</g>
</g>
<g>
	<g>
	</g>
</g>
</svg>
