<?xml version="1.0" encoding="utf-8"?>
<!-- Generator: Adobe Illustrator 23.1.1, SVG Export Plug-In . SVG Version: 6.00 Build 0)  -->
<svg version="1.1" id="Capa_1" xmlns="http://www.w3.org/2000/svg" xmlns:xlink="http://www.w3.org/1999/xlink" x="0px" y="0px"
	 viewBox="0 0 80 80" style="enable-background:new 0 0 80 80;" xml:space="preserve">
<style type="text/css">
	.st0{fill:#319CCC;}
	.st1{fill:#FFFFFF;}
</style>
<g id="XMLID_1449_">
	<path id="XMLID_1451_" class="st0" d="M40,79.4L40,79.4C18.2,79.4,0.6,61.8,0.6,40l0,0C0.6,18.2,18.2,0.6,40,0.6h0
		c21.8,0,39.4,17.6,39.4,39.4l0,0C79.4,61.8,61.8,79.4,40,79.4z"/>
	<path id="XMLID_1450_" class="st1" d="M19,53.2c3.8,2.4,8.3,3.9,13.2,3.9c16,0,25-13.5,24.5-25.6c1.7-1.2,3.1-2.7,4.3-4.5
		c-1.5,0.7-3.2,1.1-4.9,1.4c1.8-1.1,3.1-2.8,3.8-4.8c-1.7,1-3.5,1.7-5.5,2.1c-1.6-1.7-3.8-2.7-6.3-2.7c-5.6,0-9.6,5.2-8.4,10.6
		c-7.2-0.4-13.5-3.8-17.7-9c-2.3,3.9-1.2,8.9,2.7,11.5c-1.4,0-2.7-0.4-3.9-1.1c-0.1,4,2.8,7.7,6.9,8.6c-1.2,0.3-2.5,0.4-3.9,0.1
		c1.1,3.4,4.3,5.9,8,6C28.1,52.5,23.6,53.7,19,53.2z"/>
</g>
</svg>
