<?xml version="1.0" encoding="utf-8"?>
<!-- Generator: Adobe Illustrator 23.1.1, SVG Export Plug-In . SVG Version: 6.00 Build 0)  -->
<svg version="1.1" id="Capa_1" xmlns="http://www.w3.org/2000/svg" xmlns:xlink="http://www.w3.org/1999/xlink" x="0px" y="0px"
	 viewBox="0 0 80 80" style="enable-background:new 0 0 80 80;" xml:space="preserve">
<style type="text/css">
	.st0{fill:#5CA35F;}
	.st1{fill-rule:evenodd;clip-rule:evenodd;fill:#FFFFFF;}
</style>
<g id="XMLID_110_">
	<path id="XMLID_1108_" class="st0" d="M40,79.3L40,79.3C18.3,79.3,0.7,61.7,0.7,40v0C0.7,18.3,18.3,0.7,40,0.7l0,0
		c21.7,0,39.3,17.6,39.3,39.3v0C79.3,61.7,61.7,79.3,40,79.3z"/>
	<g id="XMLID_115_">
		<path id="XMLID_118_" class="st1" d="M61.6,38.9c-0.3-11.4-9.7-20.5-21.2-20.5c-11.4,0-20.7,8.9-21.2,20.1c0,0.3,0,0.6,0,0.9
			c0,4,1.1,7.7,3,10.9l-3.8,11.3l11.7-3.7c3,1.7,6.5,2.6,10.2,2.6c11.7,0,21.2-9.4,21.2-21C61.6,39.3,61.6,39.1,61.6,38.9z
			 M40.4,57.1c-3.6,0-7-1.1-9.8-2.9l-6.8,2.2l2.2-6.6c-2.1-2.9-3.4-6.5-3.4-10.4c0-0.6,0-1.2,0.1-1.7c0.9-8.9,8.5-16,17.7-16
			c9.4,0,17,7.2,17.8,16.3c0,0.5,0.1,0.9,0.1,1.4C58.2,49.2,50.2,57.1,40.4,57.1z"/>
		<path id="XMLID_117_" class="st1" d="M50.1,43.7c-0.5-0.3-3.1-1.5-3.6-1.7c-0.5-0.2-0.8-0.3-1.2,0.3c-0.3,0.5-1.3,1.7-1.6,2
			c-0.3,0.3-0.6,0.4-1.1,0.1c-0.5-0.3-2.2-0.8-4.2-2.6c-1.5-1.4-2.6-3-2.9-3.6c-0.3-0.5,0-0.8,0.2-1.1c0.2-0.2,0.5-0.6,0.8-0.9
			c0.1-0.1,0.1-0.2,0.2-0.2c0.1-0.2,0.2-0.4,0.3-0.6c0.2-0.3,0.1-0.6,0-0.9c-0.1-0.3-1.2-2.8-1.6-3.8c-0.4-1-0.9-0.9-1.2-0.9
			c-0.3,0-0.6,0-1,0c-0.3,0-0.9,0.1-1.4,0.6c-0.5,0.5-1.8,1.8-1.8,4.3c0,0.6,0.1,1.2,0.3,1.8c0.5,1.8,1.7,3.3,1.9,3.6
			c0.3,0.3,3.6,5.7,8.9,7.8c5.3,2.1,5.3,1.4,6.2,1.3c1-0.1,3.1-1.2,3.5-2.5c0.4-1.2,0.4-2.2,0.3-2.5C51,44.1,50.6,43.9,50.1,43.7z"
			/>
	</g>
</g>
</svg>
