<?xml version="1.0" encoding="utf-8"?>
<!-- Generator: Adobe Illustrator 23.1.1, SVG Export Plug-In . SVG Version: 6.00 Build 0)  -->
<svg version="1.1" id="Capa_1" xmlns="http://www.w3.org/2000/svg" xmlns:xlink="http://www.w3.org/1999/xlink" x="0px" y="0px"
	 viewBox="0 0 80 80" style="enable-background:new 0 0 80 80;" xml:space="preserve">
<style type="text/css">
	.st0{fill:#B7301E;}
	.st1{fill:#FFFFFF;}
</style>
<g id="XMLID_94_">
	<path id="XMLID_108_" class="st0" d="M40,79.2L40,79.2C18.4,79.2,0.8,61.6,0.8,40v0C0.8,18.4,18.4,0.8,40,0.8l0,0
		c21.6,0,39.2,17.5,39.2,39.2v0C79.2,61.6,61.6,79.2,40,79.2z"/>
	<g id="XMLID_95_">
		<path id="XMLID_106_" class="st1" d="M70,24.8c-0.7-2.7-2.8-4.9-5.5-5.6C59.6,17.9,40,17.9,40,17.9s-19.6,0-24.5,1.3
			c-2.7,0.7-4.8,2.9-5.5,5.6C8.7,29.7,8.7,40,8.7,40s0,10.3,1.3,15.2c0.7,2.7,2.8,4.9,5.5,5.6c4.9,1.3,24.5,1.3,24.5,1.3
			s19.6,0,24.5-1.3c2.7-0.7,4.8-2.9,5.5-5.6c1.3-4.9,1.3-15.2,1.3-15.2S71.3,29.7,70,24.8z"/>
		<polygon id="XMLID_103_" class="st0" points="33.6,49.3 33.6,30.7 50,40 		"/>
	</g>
</g>
</svg>
