<?xml version="1.0"?>
<svg xmlns="http://www.w3.org/2000/svg" id="_x33_0" enable-background="new 0 0 64 64" height="512px" viewBox="0 0 64 64" width="512px" class=""><g><g><path d="m55 47h-2v-2c0-1.103-.897-2-2-2h-2c-1.103 0-2 .897-2 2v2h-2c-1.103 0-2 .897-2 2v2c0 1.103.897 2 2 2h2v2c0 1.103.897 2 2 2h2c1.103 0 2-.897 2-2v-2h2c1.103 0 2-.897 2-2v-2c0-1.103-.897-2-2-2zm0 4h-4v4h-2v-4h-4v-2h4v-4h2v4l4-.002z" data-original="#000000" class="active-path" data-old_color="#000000" fill="#FFFFFF"/><path d="m57.04 39.088c3.851-4.335 5.96-9.865 5.96-15.761 0-6.282-2.446-12.188-6.888-16.629-3.674-3.675-8.559-5.698-13.756-5.698-3.005 0-6.013.71-8.7 2.054l-1.656.828-1.656-.828c-2.688-1.344-5.696-2.054-8.7-2.054-5.197 0-10.081 2.023-13.756 5.698-4.442 4.441-6.888 10.347-6.888 16.689 0 6.378 2.63 12.58 7.216 17.013l23.784 22.991 6.896-6.666c2.282 3.754 6.399 6.275 11.104 6.275 7.168 0 13-5.832 13-13 0-4.573-2.38-8.594-5.96-10.912zm-7.04-2.088c-2.483 0-4.797.712-6.772 1.925-1.311-3.376-4.173-5.942-7.746-6.835l-1.949-.487c.549-.777.959-1.656 1.204-2.602h.263c1.474 0 2.75-.81 3.444-2h1.88l2.95 7.377 3.825-17.213 2.137 7.835h11.686c-.36 4.901-2.352 9.476-5.713 13.097-1.597-.701-3.356-1.097-5.209-1.097zm-16 8c0 .552-.448 1-1 1s-1-.448-1-1 .448-1 1-1 1 .448 1 1zm-21.841-3.57c.558-3.22 2.804-5.916 5.841-7.065v5.736c-1.771.361-3.183 1.671-3.734 3.366zm3.841 3.57c0-1.654 1.346-3 3-3s3 1.346 3 3v3h2v-3c0-2.414-1.721-4.434-4-4.899v-6.321l.646-.161 5.354 11.601v9.59l-10-9.666zm3-21.91v3.91c-1.103 0-2-.897-2-2s.897-2 2-2h.006c0 .03-.006.06-.006.09zm.386-2.09h-.386c-.536 0-1.045.11-1.512.301l-.097-.292c-.26-.778-.391-1.587-.391-2.405 0-4.193 3.411-7.604 7.604-7.604h4.793c4.192 0 7.603 3.411 7.603 7.604 0 .818-.131 1.627-.39 2.405l-.098.293c-.467-.192-.976-.302-1.512-.302h-1-.343c-3.248 0-6.302-1.226-8.657-3.441v-2.559h-2v2.382l-.684.342c-1.392.696-2.412 1.876-2.93 3.276zm15.614 2c1.103 0 2 .897 2 2s-.897 2-2 2zm-2 4c0 3.309-2.691 6-6 6s-6-2.691-6-6v-3.91c0-1.525.847-2.896 2.211-3.578l.608-.304c2.539 2.304 5.754 3.627 9.181 3.777zm-10.018 6.906c.723.422 1.514.739 2.358.918l-1.093 1.822zm4.018 8.707-1.74-3.77 1.74-2.9 1.74 2.9zm2.754-5.967-1.093-1.822c.844-.179 1.635-.495 2.358-.918zm-20.452-28.534c3.297-3.297 7.679-5.112 12.342-5.112 2.695 0 5.395.637 7.806 1.843l2.55 1.275 2.551-1.275c2.411-1.206 5.11-1.843 7.805-1.843 4.662 0 9.045 1.815 12.342 5.112 3.972 3.973 6.185 9.229 6.283 14.888h-10.217l-3.863-14.164-4.175 18.787-1.049-2.623h-2.677c0-.901-.31-1.724-.815-2.393l.323-.966c.326-.983.492-2.004.492-3.037 0-5.296-4.309-9.604-9.604-9.604h-4.793c-5.294 0-9.603 4.308-9.603 9.604 0 .81.106 1.613.308 2.396h-.69l-4.201-8.401-1.906 15.25-1.818-4.849h-3.677c.084-5.624 2.3-10.902 6.286-14.888zm-6.217 16.888h2.222l4.183 11.151 2.094-16.75 1.798 3.599h2.174c-.344.591-.556 1.268-.556 2 0 2.206 1.794 4 4 4h.263c.245.946.655 1.825 1.204 2.602l-1.949.487c-3.874.969-6.923 3.96-8.047 7.71l-.865-.836c-3.799-3.674-6.112-8.674-6.521-13.963zm28.915 35.609-4-3.867v-11.522l4-8.667v5.631c-1.161.414-2 1.514-2 2.816 0 1.654 1.346 3 3 3s3-1.346 3-3c0-1.302-.839-2.402-2-2.816v-8.404l.997.249c3.112.779 5.557 3.105 6.534 6.129-2.768 2.386-4.531 5.909-4.531 9.842 0 1.718.343 3.355.951 4.857zm18 .391c-6.065 0-11-4.935-11-11s4.935-11 11-11 11 4.935 11 11-4.935 11-11 11z" data-original="#000000" class="active-path" data-old_color="#000000" fill="#FFFFFF"/><circle cx="24" cy="25" r="1" data-original="#000000" class="active-path" data-old_color="#000000" fill="#FFFFFF"/><circle cx="30" cy="25" r="1" data-original="#000000" class="active-path" data-old_color="#000000" fill="#FFFFFF"/><path d="m24.895 27.553-1.789.895.105.21c.722 1.445 2.174 2.342 3.789 2.342s3.067-.897 3.789-2.342l.105-.211-1.789-.895-.105.212c-.381.762-1.147 1.236-2 1.236s-1.619-.474-2-1.236z" data-original="#000000" class="active-path" data-old_color="#000000" fill="#FFFFFF"/></g></g> </svg>
