<?xml version="1.0"?>
<svg xmlns="http://www.w3.org/2000/svg" viewBox="0 0 64 64" width="512px" height="512px" class=""><g><g id="Indentity_theft" data-name="Indentity theft"><path d="M57,2H7A5.006,5.006,0,0,0,2,7V37a4.989,4.989,0,0,0,4.484,4.948L3.9,47.771a5.024,5.024,0,0,0,.2,4.459l3.528,6.349A3.011,3.011,0,0,1,8,60.037V61a1,1,0,0,0,2,0v-.963a5.021,5.021,0,0,0-.629-2.429L5.843,51.259a3.018,3.018,0,0,1-.119-2.676L8.65,42H16v7a1,1,0,0,0,2,0V37a3,3,0,0,1,6,0V61a1,1,0,0,0,2,0V48.46A5.969,5.969,0,0,0,30,50h3a1,1,0,0,0,1-1V42h4v8a6,6,0,0,0,12,0V42h7a5.006,5.006,0,0,0,5-5V7A5.006,5.006,0,0,0,57,2ZM32,48H30a4,4,0,0,1-4-4V42h6Zm16,2a4,4,0,0,1-8,0V38h8ZM44,32A12,12,0,1,1,56,20,12.013,12.013,0,0,1,44,32Zm-2,1.84a12.58,12.58,0,0,0,4,0V36H42ZM60,37a3,3,0,0,1-3,3H50V37a1,1,0,0,0-1-1H48V33.41a14,14,0,1,0-8,0V36H39a1,1,0,0,0-1,1v3H26V37a5,5,0,0,0-10,0v3H7a3,3,0,0,1-3-3V7A3,3,0,0,1,7,4H57a3,3,0,0,1,3,3Z" data-original="#000000" class="active-path" data-old_color="#000000" fill="#FFFFFF"/><path d="M25,8H9A1,1,0,0,0,8,9V25a1,1,0,0,0,1,1H25a1,1,0,0,0,1-1V9A1,1,0,0,0,25,8ZM14,24V22a3,3,0,0,1,6,0v2Zm3-8a1,1,0,1,1,1-1A1,1,0,0,1,17,16Zm7,8H22V22a5,5,0,0,0-3.168-4.641,3,3,0,1,0-3.664,0A5,5,0,0,0,12,22v2H10V10H24Z" data-original="#000000" class="active-path" data-old_color="#000000" fill="#FFFFFF"/><path d="M52.661,15A10,10,0,1,0,49,28.661,10.015,10.015,0,0,0,52.661,15ZM48,26.928A8,8,0,1,1,50.928,16,8.009,8.009,0,0,1,48,26.928Z" data-original="#000000" class="active-path" data-old_color="#000000" fill="#FFFFFF"/><path d="M41,17h6a1,1,0,0,0,0-2H41a1,1,0,0,0,0,2Z" data-original="#000000" class="active-path" data-old_color="#000000" fill="#FFFFFF"/><path d="M47,23H41a1,1,0,0,0,0,2h6a1,1,0,0,0,0-2Z" data-original="#000000" class="active-path" data-old_color="#000000" fill="#FFFFFF"/><path d="M49,19H39a1,1,0,0,0,0,2H49a1,1,0,0,0,0-2Z" data-original="#000000" class="active-path" data-old_color="#000000" fill="#FFFFFF"/><path d="M25,28H9a1,1,0,0,0,0,2H25a1,1,0,0,0,0-2Z" data-original="#000000" class="active-path" data-old_color="#000000" fill="#FFFFFF"/></g></g> </svg>
