<?xml version="1.0" encoding="utf-8"?>
<!-- Generator: Adobe Illustrator 23.1.1, SVG Export Plug-In . SVG Version: 6.00 Build 0)  -->
<svg version="1.1" id="Capa_1" xmlns="http://www.w3.org/2000/svg" xmlns:xlink="http://www.w3.org/1999/xlink" x="0px" y="0px"
	 viewBox="0 0 512 512" style="enable-background:new 0 0 512 512;" xml:space="preserve">
<style type="text/css">
	.st0{fill:#FFFFFF;}
</style>
<path id="Path_947" class="st0" d="M399.1,417.9c0-9.5-1.5-18.9-4.5-27.9c38.9,10.2,80.6-4,102.2-34.9c21.6-30.5,17.5-72.1-9.6-97.8
	c-28.8-27.3-71.1-34.5-107.3-18.3c-36.3,16.2-56.2,52.1-48.7,87.9c-0.2-0.1-0.5-0.2-0.7-0.3L250,297.8v-13.7
	c13.1-5.9,24.8-14.4,34.6-24.9h25c15.6,0.8,28.9-11.2,29.8-26.8v-19.5c11.4-3.2,19.4-13.3,19.9-25.2v-26.8
	c-0.4-11.8-8.5-22-19.9-25.2v-10.6c0-69.1-62.3-125-139.1-125s-139.2,56-139.2,125v10.6c-11.4,3.2-19.4,13.3-19.9,25.2v26.8
	c0.9,15.6,14.2,27.6,29.8,26.8h19.9c0.6,0,1.3-0.1,1.9-0.1c7.1,31.1,28.5,57,57.8,69.7v13.7l-80.4,28.9
	c-41.6,14.8-68.8,51-68.7,91.2v82.4c0.3,5.2,4.7,9.2,9.9,8.9h377.7c5.2,0.3,9.6-3.7,9.9-8.9L399.1,417.9L399.1,417.9z M349.4,312.8
	c-0.2-28.7,21.2-53.9,52.1-61.3c30.1-7.7,61.7,4.3,79.1,30.1c15.7,25,10.2,57.7-12.7,76.3c-24.1,20-58,23.1-85.4,8
	c-7-10.1-15.8-18.8-26-25.7C351.8,331.8,349.4,322.3,349.4,312.8L349.4,312.8z M309.6,241.3h-12.1c4.8-8.4,8.3-17.4,10.2-26.9
	c0.6,0,1.2,0.1,1.9,0.1h9.9v17.9C319.3,237.6,314.8,241.6,309.6,241.3z M289.7,143.1c-9.1,0.1-17.9-3.8-23.9-10.7L248,110.9
	c-1.7-2-4.1-3.2-6.7-3.5c-2.6-0.3-5.3,0.4-7.5,1.9l-33.4,23.9c-9.1,6.4-19.9,9.8-31,9.8h-58.6v-8.9c0-44.4,40.1-80.4,89.4-80.4
	s89.4,36,89.4,80.4L289.7,143.1z M339.4,187.7c-0.3,5.2-4.7,9.2-9.9,8.9h-19.9V152h19.9c5.2-0.3,9.6,3.7,9.9,8.9L339.4,187.7z
	 M200.3,18c65.8,0.1,119.2,48,119.3,107.2v8.9h-10c0-54.3-48.9-98.2-109.3-98.2s-109.4,44-109.4,98.3H81v-8.9
	C81.1,66,134.4,18.1,200.3,18L200.3,18z M71.1,196.7c-5.2,0.3-9.6-3.7-9.9-8.9v-26.8c0.3-5.2,4.7-9.2,9.9-8.9h19.9v44.7H71.1z
	 M110.8,196.7v-35.7h58.6c15.6,0.1,30.7-4.7,43.5-13.7l25.3-18.2l11.7,14.1c10,11.5,24.5,18,39.8,17.9v35.7
	c-0.1,16.1-5.4,31.8-15.1,44.7h-74.3v17.9h56.1c-27.7,19.6-63.6,23.3-94.7,10C131.7,257.4,111.7,228.9,110.8,196.7L110.8,196.7z
	 M200.3,294.9c10.1,0,20.1-1.3,29.8-3.8v12.7c-0.9,15.6-14.2,27.6-29.8,26.8c-15.6,0.8-29-11.2-29.8-26.8v-12.7
	C180.2,293.6,190.2,294.9,200.3,294.9L200.3,294.9z M379.2,491.4h-59.6v-98.2h-19.9v98.2H100.9v-98.2H81v98.2H21.4v-73.5
	c-0.1-32.9,22.2-62.5,56.2-74.6l75.2-27c7.2,19.9,26.4,32.9,47.5,32.2c21.1,0.7,40.3-12.4,47.5-32.2l75.2,27
	c34,12.1,56.4,41.7,56.2,74.6L379.2,491.4z"/>
<path id="Path_948" class="st0" d="M456.4,288h-15.3v-15.3c0-8.4-6.8-15.3-15.3-15.3h-15.3c-8.4,0-15.3,6.8-15.3,15.3V288h-15.3
	c-8.4,0-15.3,6.8-15.3,15.3v15.3c0,8.4,6.8,15.3,15.3,15.3h15.3v15.3c0,8.4,6.8,15.3,15.3,15.3h15.3c8.4,0,15.3-6.8,15.3-15.3v-15.3
	h15.3c8.4,0,15.3-6.8,15.3-15.3v-15.3C471.7,294.9,464.9,288.1,456.4,288z M456.4,318.6h-30.5v30.5h-15.3v-30.5h-30.5v-15.3h30.5
	v-30.5h15.3v30.5h30.5L456.4,318.6z"/>
</svg>
