<?xml version="1.0" encoding="utf-8"?>
<!-- Generator: Adobe Illustrator 23.1.1, SVG Export Plug-In . SVG Version: 6.00 Build 0)  -->
<svg version="1.1" id="Layer_1" xmlns="http://www.w3.org/2000/svg" xmlns:xlink="http://www.w3.org/1999/xlink" x="0px" y="0px"
	 viewBox="0 0 253.7 256.1" style="enable-background:new 0 0 253.7 256.1;" xml:space="preserve">
<style type="text/css">
	.st0{fill:#0B3791;}
</style>
<g>
	<path class="st0" d="M2.1,127.7c0,69.3,56.2,125.7,125.2,125.7s125.2-56.4,125.2-125.7C252.6,58.4,196.4,2,127.4,2
		C58.3,2,2.1,58.4,2.1,127.7z M5.9,127.7C5.9,60.5,60.4,5.8,127.4,5.8c67,0,121.4,54.7,121.4,121.9s-54.5,121.9-121.4,121.9
		C60.4,249.5,5.9,194.8,5.9,127.7z"/>
	<path class="st0" d="M157.6,75.7c0.9,2,2,3.6,2.4,5.8c1.1,2.8-1.7,5.3-3.9,6.3c-14.3,7.1,4,13.9,4.9,21.3c3.3,8.2,6.4,18.3,1,26.6
		c-3.6,5.6-9.3,8.3-15,10.1c6.1,4.5,13.8,7.8,20.9,11.2c9.2,0.6,18.9,3.2,23.2,12.6c1.6,5.5,1.6,11.2-1.9,15.9
		c2.3,2.4,9.1,0.8,7.8,5.3l-1.5,3.8c-41.2-15.1-95.7-11.5-136.4,2.4c-2-0.8-1.8-3.5-2.4-5.4c8.5-5.6,19.5-6.9,29.9-8.7l1-1
		c-5.1-8.1-9.1-17.2-8.8-27c-5.6-6.9-18.3-12.3-14.5-22.8l21.4-34.4C102,83.7,120.7,75.2,139.2,66C146.6,66.2,154,68.4,157.6,75.7z
		 M138.8,71.8c-13.2,8-28.1,12.9-40.2,22.8l5.8,4.8c9.8,14.2-4.7,25.8-11.6,36.7c0.4,3.8,4.6,6.8,7.7,8.8c4-7.1,12.7-6.1,17.9-10.2
		c-4.4-7.2-5.9-18.1-2.4-26.1c6.2-14.2,19.3-30.2,36.3-30.5v-1.4C148.8,72.3,144.2,71.2,138.8,71.8z M132.9,92.6
		c0.4,2.7,3.3,1.8,6.3,1.5c5.2-0.6,10.5-4.8,12.6-9.7C144.5,84.7,138.2,87.4,132.9,92.6z M144.5,98.4c-5.1,2.3-11,1.8-16.4,0.5
		c-6.3,9.1-10.8,20.6-5.3,31c1.3-4.1,4.9-7.2,6.8-11.1c-2.2-2.9-3.7-6.8-2.4-10.7c1.1-2.8,4-5.3,6.9-6.2c4.6-2.1,8.2,1.3,11.6,4.3
		c3.5,3.1,1.3,7.4,1.9,11.1c0.4,5.8,7.1,0.7,9.2,4.3c-0.7,6.5-9.7,1.5-13.5,4.4c-3.9,0-5.8,7.8-9.2,2.8c1.5-4.3,6.2-7.5,10.6-8.2
		c-4.9-1.9-0.6-6.8-1.9-10.7c-1.3-3.5-4.9-3.6-8.3-3.3c-2.6,0.9-3,3.7-2.8,6.2c0.8,3,3.3,3.2,5.2,5.8c-0.3,3.2-3.9,2.5-5.2,5.2
		c-1.8,2-3.4,4.4-0.5,6.3c-2.5,6.6-8.8,11.6-14.5,15.4c-12.7,2.4-5,18.4-14,24.7c-2.7,1.7-5.2,5.5-8.8,3.4c-1.9-1.3-0.2-2.8,1-3.9
		c14.1-4,3.1-23.8,18.3-27.5c-2.9,0.2-5.5,1.3-7.8,2.9c-3.2,8.6-2.7,21.2-14.5,23.7c-2.4-1.3-1.6-3.3-0.4-4.8c-2-1.5-3.6-3-5.8-3.9
		c1.7,7.4,3.8,14.7,8.7,20.9c28.3-5.5,62.5-4.6,89.5,2.9c4.1-2.6,4.5-8.2,3.4-12.6c-1.7-3.4-5.2-6.4-8.7-7.3
		c-13-4.1-29.5,0.5-41.6-5.8c0.6-1.4,0.6-3.1,1.9-4.3c4.8,1.2,11,1.7,15.5,1.4c-5.2-2.2-10.2-5.1-15.5-7.2
		c-1.1,9.3-10.5,15.9-18.4,18.9c-3.9,1.4-9.7,1.4-13.6,0l3.9-10.7c-0.6-13.4,14.6-5.4,19.8-13.1c0.4-2.2-2.6-3.2-2.8-5.2
		c4.9-3.6,11.1-4.1,15.4-9.3c1.7,1.1,1.7,2.8,3.4,3.9l-10.2,7.8c8.5,0.7,18.4,0,22.8-8.8c4.6-12.2-2.8-24.2-11.2-33.4L144.5,98.4
		L144.5,98.4z M91.8,98.9c-8.3,10.9-14.5,22.6-21.8,33.9l-0.5,5.8c7.3,8.4,16.4,16.8,26.1,21.8c1.5-3.1,2.4-6.5,2.9-10.1l-11.6-12.1
		c4.7-11.8,21-20.6,14-35.4C99.4,99,95.5,98.5,91.8,98.9z M117,154.6l-2.9,7.8c6.7-1.8,14.6-5.1,17.4-12.6
		C126.9,152.1,122.2,154.1,117,154.6z"/>
	<g>
		<path class="st0" d="M29,143.1c-0.9,0.3-1.3,0.9-1.5,1.6c-0.2,0.7-0.2,1.4-0.1,2.2c0.4,1.9,1,2.6,2,2.4c3.8-0.7-1.3-15,8-16.8
			c6-1.1,9.8,3.3,11.1,10.4c1.3,6.8-1.9,11.9-6.5,13l-1.5-8.1c0.9-0.4,1.5-1,1.8-1.8c0.3-0.8,0.3-1.7,0.2-2.5
			c-0.4-2.1-1.3-3.4-2.5-3.1c-3.9,0.7,1.6,15-8.2,16.8c-5.5,1-9.1-3.2-10.3-9.6c-1.3-7.1,1.7-11.1,6.1-12.5L29,143.1z"/>
		<path class="st0" d="M45.7,129.3l-26-2.8l2.3-21.2l6.1,0.7l-1.4,12.7l3.7,0.4l1.2-10.7l6,0.7l-1.2,10.7l4.1,0.4L42,107l6.1,0.6
			L45.7,129.3z"/>
		<path class="st0" d="M59,82.8l-2.3,5L54.2,87c0.9,2,1.3,4.8-0.4,8.5c-2.8,6.1-9.2,9.7-17.5,5.9c-7.6-3.5-10.6-10.6-7.1-18.3
			c2.6-5.7,7.7-8.9,13.9-7.2l-3.4,7.4c-2.2-0.3-3.9,0.6-4.8,2.6c-1.4,3.1,0.7,5.8,4.9,7.7c3.4,1.6,6.9,1.9,8.7-2
			c0.7-1.6,0.6-4.1-0.9-5.2l-1.6,3.4L41,87.4l4.9-10.7L59,82.8z"/>
		<path class="st0" d="M41.6,62.5l6-6.1l11.2,10.9c1.8,1.8,3.8,3,6.3,0.4c2.2-2.2,1.4-4.2-0.7-6.2L53.2,50.6l6-6.2l10.6,10.3
			c6,5.8,5.9,11.2-0.1,17.4C64,78,58.7,79,52.2,72.8L41.6,62.5z"/>
		<path class="st0" d="M83.3,49.4l4.1,8.1l-7.6,3.9L68,38.1l11-5.6c7.8-4,11.4-3.2,13.7,1.4c1.4,2.7,1.3,5.6-1,7.7
			c2.9-0.3,4.7-0.5,7.1,4.2c1.6,3,2,4.1,2.9,3.7l0.4,0.7L94.2,54c-0.5-0.4-1.4-1.8-2.5-3.9c-1.6-3-2.6-3.8-6.1-2L83.3,49.4z
			 M80.7,44.2l3-1.5c2.4-1.2,3.3-2.4,2.5-4c-0.8-1.7-2.5-1.8-4.3-0.9l-3.6,1.8L80.7,44.2z"/>
		<path class="st0" d="M127.4,33c1.2,8.8-4,14.6-11.7,15.7c-8.1,1.2-14.2-3.1-15.5-11.9c-1.1-8.1,3.6-14.2,11.7-15.3
			C121.2,20.2,126.5,26.2,127.4,33z M108.8,35.6c0.5,3.3,2,7.3,6.1,6.7c3.7-0.5,4.7-3.9,4.1-8.1c-0.5-3.5-2.4-7.1-6.2-6.4
			C109,28.3,108.3,32.4,108.8,35.6z"/>
		<path class="st0" d="M160.4,34.4c0.1-0.9-0.1-1.6-0.6-2.1s-1.2-0.9-2-1.1c-1.8-0.6-2.8-0.3-3,0.6c-1.2,3.7,13.8,6.1,10.9,15.1
			c-1.9,5.8-7.6,7-14.4,4.8c-6.6-2.1-9.6-7.3-8.3-11.9l7.8,2.5c-0.1,0.9,0.1,1.8,0.7,2.4c0.5,0.6,1.3,1.1,2.1,1.4
			c2,0.7,3.6,0.5,4-0.7c1.2-3.8-13.9-5.8-10.8-15.3c1.7-5.3,7.1-6.5,13.4-4.4c6.9,2.2,8.9,6.8,8.1,11.3L160.4,34.4z"/>
		<path class="st0" d="M193.4,60.3c-5.3,7.2-13.1,7.7-19.3,3.1c-6.6-4.8-8-12.2-2.8-19.4c4.9-6.6,12.5-7.6,19.1-2.8
			C197.9,46.7,197.5,54.7,193.4,60.3z M178.3,49.1c-2,2.7-3.6,6.7-0.3,9.1c3,2.2,6.1,0.5,8.6-3c2.1-2.9,3.2-6.8,0.1-8.9
			C183.5,44,180.2,46.5,178.3,49.1z"/>
		<path class="st0" d="M209,76.4c2.1-1.8,2.4-4.1,0.9-6.2c-1.7-2.5-4.9-2.5-9,0.4c-3,2.1-5.4,4.7-2.9,8.3c1.6,2.3,3.9,2.2,6.2,1.1
			l4.7,6.8c-6,3.2-12.1,1.6-16-4.1c-4.9-7.1-3.6-14.4,3.4-19.2c6.9-4.8,14.5-3.1,18.7,2.8c4.6,6.5,3.9,12.5-1.2,16.9L209,76.4z"/>
		<path class="st0" d="M200.5,94.7l24.4-9.4l3.1,8l-24.4,9.4L200.5,94.7z"/>
		<path class="st0" d="M205,103.8l27.1,6l1.1,8.6L208.5,131l-1.1-8.5l3.3-1.4l-1.1-8.5l-3.6-0.5L205,103.8z M224.9,115l-9.6-1.4
			l0.7,5.3L224.9,115z"/>
		<path class="st0" d="M207.9,131.9l25.8,4.3l-1.4,8.4l-19.8-3.3l-1.9,11.6l-6-1L207.9,131.9z"/>
	</g>
</g>
<g>
	<path class="st0" d="M86.7,216.9c-0.2-0.7-0.6-2-2.6-2c-1.2,0-2.9,0.8-2.9,4.1c0,2.1,0.8,4,2.9,4c1.3,0,2.3-0.8,2.6-2.2h2.4
		c-0.5,2.5-2.1,4.3-5,4.3c-3.1,0-5.3-2.1-5.3-6.1c0-4.1,2.3-6.1,5.3-6.1c3.5,0,4.9,2.4,5,4.1L86.7,216.9L86.7,216.9z"/>
	<path class="st0" d="M95.8,212.8c1.6,0,5.6,0.7,5.6,6.1c0,5.4-4,6.1-5.6,6.1c-1.5,0-5.6-0.7-5.6-6.1
		C90.3,213.5,94.3,212.8,95.8,212.8z M95.8,223c1.3,0,3.2-0.8,3.2-4.1c0-3.2-1.8-4.1-3.2-4.1c-1.3,0-3.1,0.8-3.1,4.1
		C92.7,222.1,94.5,223,95.8,223z"/>
	<path class="st0" d="M104.9,221.1c0,0.6,0.3,1.9,2.4,1.9c1.2,0,2.4-0.3,2.4-1.5c0-0.9-0.9-1.1-2.1-1.4l-1.2-0.3
		c-1.8-0.4-3.7-0.9-3.7-3.4c0-1.3,0.7-3.6,4.4-3.6c3.5,0,4.5,2.3,4.5,3.8h-2.3c-0.1-0.5-0.2-1.7-2.4-1.7c-0.9,0-2,0.3-2,1.4
		c0,0.9,0.8,1.1,1.2,1.2l2.8,0.7c1.6,0.4,3.1,1,3.1,3.1c0,3.5-3.6,3.8-4.6,3.8c-4.2,0-5-2.4-5-3.9L104.9,221.1L104.9,221.1z"/>
	<path class="st0" d="M118.7,224.7h-2.4v-9.5h-3.5v-2.1h9.4v2.1h-3.5V224.7z"/>
	<path class="st0" d="M123.7,224.7h-2.6l4.1-11.6h2.8l4.1,11.6h-2.6l-0.8-2.4h-4.3L123.7,224.7z M125.1,220.3h2.9l-1.4-4.6h0
		L125.1,220.3z"/>
	<path class="st0" d="M137.8,213.1h5.8c3.1,0,3.6,2.3,3.6,3.3c0,1.2-0.6,2.4-1.8,2.8c0.9,0.4,1.5,0.8,1.5,2.9c0,1.7,0,2.1,0.5,2.3
		v0.3h-2.7c-0.2-0.6-0.3-1.1-0.3-2.3c0-1.6-0.1-2.2-1.9-2.2h-2.5v4.5h-2.4L137.8,213.1L137.8,213.1z M143,218.2
		c1.2,0,1.9-0.4,1.9-1.6c0-0.6-0.3-1.5-1.7-1.5h-3v3.1H143z"/>
	<path class="st0" d="M151.5,224.7h-2.4v-11.6h2.4V224.7z"/>
	<path class="st0" d="M161,216.9c-0.2-0.7-0.6-2-2.6-2c-1.2,0-2.9,0.8-2.9,4.1c0,2.1,0.8,4,2.9,4c1.3,0,2.3-0.8,2.6-2.2h2.4
		c-0.5,2.5-2.1,4.3-5,4.3c-3.1,0-5.3-2.1-5.3-6.1c0-4.1,2.3-6.1,5.3-6.1c3.5,0,4.9,2.4,5,4.1L161,216.9L161,216.9z"/>
	<path class="st0" d="M166.8,224.7h-2.5l4.1-11.6h2.8l4.1,11.6h-2.6l-0.7-2.4h-4.3L166.8,224.7z M168.2,220.3h3l-1.4-4.6h0
		L168.2,220.3z"/>
</g>
</svg>
